<?xml version="1.0" encoding="UTF-8"?>
<svg width="59px" height="78px" viewBox="0 0 59 78" version="1.1" xmlns="http://www.w3.org/2000/svg" xmlns:xlink="http://www.w3.org/1999/xlink">
    <!-- Generator: Sketch 55.2 (78181) - https://sketchapp.com -->
    <title>Artboard</title>
    <desc>Created with Sketch.</desc>
    <g id="Artboard" stroke="none" stroke-width="1" fill="none" fill-rule="evenodd">
        <g id="noun_Library_2228372" fill="#1A73E8" fill-rule="nonzero">
            <path d="M58.444898,14.055102 L7.96122449,20.255102 C7.25918367,20.344898 6.56530612,20.2346939 6.07142857,19.9632653 C5.76938776,19.7979592 5.64489796,19.622449 5.63673469,19.5469388 L4.65714286,11.577551 C4.62653061,11.3244898 5.29591837,10.5061224 6.74285714,10.3285714 L54.7326531,4.43469388 L54.1897959,0.0204081633 L6.20204082,5.91428571 C2.60204082,6.35510204 0.0591836735,8.93673469 0.244897959,11.8489796 L0.210204082,11.8489796 L0.210204082,68.9857143 L0.242857143,68.9857143 C0.248979592,69.077551 0.232653061,69.1653061 0.242857143,69.2571429 L1.22040816,72.7795918 C1.4122449,74.3346939 2.39795918,75.7081633 3.92653061,76.5510204 C4.96530612,77.1204082 6.20204082,77.422449 7.48367347,77.4210661 C7.82244898,77.4210661 8.16326531,77.4 8.50408163,77.3612245 L57.444898,70.9857143 L58.444898,14.055102 Z" id="Shape"></path>
        </g>
        <g id="noun_Security_2995532" transform="translate(12.000000, 22.000000)" fill="#FFFFFF" fill-rule="nonzero">
            <path d="M38.9586862,11.819852 C38.9113007,10.5991324 38.9113007,9.42536361 38.9113007,8.29854555 C38.9113007,7.40648125 38.2005191,6.70221995 37.3001957,6.70221995 C30.3345358,6.6552692 25.0273663,4.68333759 20.6205202,0.457769839 C20.0045095,-0.152589946 18.9620298,-0.152589946 18.346019,0.457769839 C13.9391729,4.68333759 8.63200347,6.6552692 1.71372898,6.6552692 C0.813405585,6.6552692 0.102623959,7.35953049 0.102623959,8.25159479 C0.102623959,9.37841286 0.102623959,10.5521817 0.0552385176,11.819852 C-0.181688691,23.4166879 -0.513386783,39.2390916 18.9620298,45.9060985 C19.1515715,45.9530492 19.2937279,46 19.4832696,46 C19.6728114,46 19.8623532,45.9530492 20.0045095,45.9060985 C39.479926,39.2390916 39.148228,23.4166879 38.9586862,11.819852 Z M19.4832696,42.6664966 C2.80359414,36.6568002 3.04052135,23.5105894 3.27744856,11.9137535 C3.27744856,11.2094922 3.324834,10.5521817 3.324834,9.89487114 C9.81663952,9.56621587 15.0290381,7.64123501 19.4832696,3.79127328 C23.9375012,7.64123501 29.1498997,9.61316662 35.6417053,9.84792039 C35.6417053,10.5052309 35.6417053,11.1625415 35.6890907,11.8668028 C35.9260179,23.5105894 36.1629451,36.6568002 19.4832696,42.6664966 Z" id="Shape"></path>
        </g>
        <g id="noun_padlock_174116" transform="translate(24.982246, 34.982855)" fill="#FFFFFF" fill-rule="nonzero">
            <path d="M12.8972603,7.58507853 L11.7945205,7.58507853 L11.7945205,4.97382199 C11.7945205,2.2382199 9.6369863,0 7,0 C4.3390411,0 2.18150685,2.2382199 2.18150685,4.9986911 L2.18150685,7.60994764 L1.10273973,7.60994764 C0.503424658,7.60994764 0,8.13219895 0,8.7539267 L0,17.8560209 C0,18.4777487 0.503424658,19 1.10273973,19 L12.8972603,19 C13.4965753,19 14,18.4777487 14,17.8560209 L14,8.72905759 C14,8.10732984 13.4965753,7.58507853 12.8972603,7.58507853 Z M8.12671233,14.9712042 C8.12671233,15.2945026 7.8869863,15.5431937 7.57534247,15.5431937 L6.44863014,15.5431937 C6.1369863,15.5431937 5.89726027,15.2945026 5.89726027,14.9712042 L5.89726027,11.5641361 C5.89726027,11.2408377 6.1369863,10.9921466 6.44863014,10.9921466 L7.57534247,10.9921466 C7.8869863,10.9921466 8.12671233,11.2408377 8.12671233,11.5641361 L8.12671233,14.9712042 Z M9.6130137,7.58507853 L4.3869863,7.58507853 L4.3869863,4.97382199 C4.3869863,3.48167539 5.56164384,2.26308901 7,2.26308901 C8.43835616,2.26308901 9.6130137,3.48167539 9.6130137,4.97382199 L9.6130137,7.58507853 Z" id="Shape"></path>
        </g>
    </g>
</svg>