<?xml version="1.0" encoding="UTF-8"?>
<svg width="87px" height="104px" viewBox="0 0 87 104" version="1.1" xmlns="http://www.w3.org/2000/svg" xmlns:xlink="http://www.w3.org/1999/xlink">
    <!-- Generator: Sketch 55.2 (78181) - https://sketchapp.com -->
    <title>Harden Icon</title>
    <desc>Created with Sketch.</desc>
    <g id="Page-1" stroke="none" stroke-width="1" fill="none" fill-rule="evenodd">
        <g id="LightMode" transform="translate(-131.000000, -196.000000)" fill-rule="nonzero">
            <g id="Harden" transform="translate(124.000000, 196.000000)">
                <g id="Harden-Icon" transform="translate(7.000000, 0.000000)">
                    <g id="Group-16">
                        <g id="noun_Security_2995532" fill="#CBD2DF">
                            <path d="M86.9078384,26.7231437 C86.8021324,23.9632559 86.8021324,21.3095177 86.8021324,18.7619291 C86.8021324,16.745088 85.2165426,15.1528451 83.2081289,15.1528451 C67.6693491,15.0466956 55.8302787,10.5884154 45.9996221,1.0349579 C44.6254442,-0.344985966 42.2999126,-0.344985966 40.9257348,1.0349579 C31.0950781,10.5884154 19.2560077,15.0466956 3.82293387,15.0466956 C1.81452015,15.0466956 0.228930371,16.6389385 0.228930371,18.6557795 C0.228930371,21.2033682 0.228930371,23.8571064 0.123224386,26.7231437 C-0.405305542,52.9420771 -1.14524744,88.714468 42.2999126,103.787701 C42.7227365,103.89385 43.0398545,104 43.4626784,104 C43.8855023,104 44.3083263,103.89385 44.6254442,103.787701 C88.0706042,88.714468 87.3306624,52.9420771 86.9078384,26.7231437 Z M43.113642,98.4633834 C4.21175749,84.2578863 4.76434108,53.1833616 5.31692467,25.7711915 C5.31692467,24.1064848 5.42744138,22.5527586 5.42744138,20.9990323 C20.5682317,20.2221692 32.7250706,15.6719709 43.113642,6.57157438 C53.5022134,15.6719709 65.6590523,20.3331496 80.7998426,20.8880519 C80.7998426,22.4417781 80.7998426,23.9955043 80.9103593,25.660211 C81.4629429,53.1833616 82.0155265,84.2578863 43.113642,98.4633834 Z" id="Shape"></path>
                        </g>
                        <g id="noun_padlock_174116" transform="translate(27.000000, 29.000000)" fill="#1A73E8">
                            <path d="M30.4006849,17.1662304 L27.8013699,17.1662304 L27.8013699,11.2565445 C27.8013699,5.06544503 22.7157534,0 16.5,0 C10.2277397,0 5.14212329,5.06544503 5.14212329,11.3128272 L5.14212329,17.2225131 L2.59931507,17.2225131 C1.18664384,17.2225131 0,18.4044503 0,19.8115183 L0,40.4109948 C0,41.8180628 1.18664384,43 2.59931507,43 L30.4006849,43 C31.8133562,43 33,41.8180628 33,40.4109948 L33,19.7552356 C33,18.3481675 31.8133562,17.1662304 30.4006849,17.1662304 Z M19.1558219,33.882199 C19.1558219,34.6138743 18.5907534,35.1767016 17.8561644,35.1767016 L15.2003425,35.1767016 C14.4657534,35.1767016 13.9006849,34.6138743 13.9006849,33.882199 L13.9006849,26.171466 C13.9006849,25.4397906 14.4657534,24.8769634 15.2003425,24.8769634 L17.8561644,24.8769634 C18.5907534,24.8769634 19.1558219,25.4397906 19.1558219,26.171466 L19.1558219,33.882199 Z M22.6592466,17.1662304 L10.3407534,17.1662304 L10.3407534,11.2565445 C10.3407534,7.87958115 13.109589,5.12172775 16.5,5.12172775 C19.890411,5.12172775 22.6592466,7.87958115 22.6592466,11.2565445 L22.6592466,17.1662304 Z" id="Shape"></path>
                        </g>
                    </g>
                </g>
            </g>
        </g>
    </g>
</svg>