<?xml version="1.0" encoding="UTF-8"?>
<svg id="jsv-tree" class="overlay" width="1920" height="1020" style="width: 100%;">
    <g id="node-group" transform="translate(360.84075927734375,129.9083709716797),scale(0.7489490509033203,0.7489490509033203)">
        <path class="link" d="M160,1196.25C240,1196.25 240,1184.1666666666667 320,1184.1666666666667"></path>
        <path class="link" d="M160,1196.25C240,1196.25 240,1208.3333333333335 320,1208.3333333333335"></path>
        <path class="link" d="M160,407.8125C240,407.8125 240,407.8125 320,407.8125"></path>
        <path class="link" d="M160,335.3125C240,335.3125 240,311.14583333333337 320,311.14583333333337"></path>
        <path class="link" d="M160,335.3125C240,335.3125 240,335.3125 320,335.3125"></path>
        <path class="link" d="M160,335.3125C240,335.3125 240,359.4791666666667 320,359.4791666666667"></path>
        <path class="link" d="M0,777.8645833333334C80,777.8645833333334 80,335.3125 160,335.3125"></path>
        <path class="link" d="M0,777.8645833333334C80,777.8645833333334 80,407.8125 160,407.8125"></path>
        <path class="link" d="M0,777.8645833333334C80,777.8645833333334 80,1196.25 160,1196.25"></path>
        <path class="link" d="M0,777.8645833333334C80,777.8645833333334 80,1220.4166666666667 160,1220.4166666666667"></path>
        <path class="link" d="M320,407.8125C400,407.8125 400,24.166666666666668 480,24.166666666666668"></path>
        <path class="link" d="M320,407.8125C400,407.8125 400,48.333333333333336 480,48.333333333333336"></path>
        <path class="link" d="M320,407.8125C400,407.8125 400,72.5 480,72.5"></path>
        <path class="link" d="M320,407.8125C400,407.8125 400,96.66666666666667 480,96.66666666666667"></path>
        <path class="link" d="M320,407.8125C400,407.8125 400,120.83333333333334 480,120.83333333333334"></path>
        <path class="link" d="M320,407.8125C400,407.8125 400,145 480,145"></path>
        <path class="link" d="M320,407.8125C400,407.8125 400,186.0833333333334 480,186.0833333333334"></path>
        <path class="link" d="M320,407.8125C400,407.8125 400,227.16666666666674 480,227.16666666666674"></path>
        <path class="link" d="M320,407.8125C400,407.8125 400,268.25000000000006 480,268.25000000000006"></path>
        <path class="link" d="M320,407.8125C400,407.8125 400,309.33333333333337 480,309.33333333333337"></path>
        <path class="link" d="M320,407.8125C400,407.8125 400,350.4166666666667 480,350.4166666666667"></path>
        <path class="link" d="M320,407.8125C400,407.8125 400,406.5178571428572 480,406.5178571428572"></path>
        <path class="link" d="M320,407.8125C400,407.8125 400,462.6190476190477 480,462.6190476190477"></path>
        <path class="link" d="M320,407.8125C400,407.8125 400,518.7202380952382 480,518.7202380952382"></path>
        <path class="link" d="M320,407.8125C400,407.8125 400,574.8214285714286 480,574.8214285714286"></path>
        <path class="link" d="M320,407.8125C400,407.8125 400,630.922619047619 480,630.922619047619"></path>
        <path class="link" d="M320,407.8125C400,407.8125 400,687.0238095238096 480,687.0238095238096"></path>
        <path class="link" d="M320,407.8125C400,407.8125 400,743.125 480,743.125"></path>
        <path class="link" d="M320,407.8125C400,407.8125 400,767.2916666666667 480,767.2916666666667"></path>
        <path class="link" d="M320,407.8125C400,407.8125 400,791.4583333333334 480,791.4583333333334"></path>
        <path class="link" d="M480,145C560,145 560,145 640,145"></path>
        <path class="link" d="M640,145C720,145 720,48.333333333333336 800,48.333333333333336"></path>
        <path class="link" d="M640,145C720,145 720,72.5 800,72.5"></path>
        <path class="link" d="M640,145C720,145 720,96.66666666666667 800,96.66666666666667"></path>
        <path class="link" d="M640,145C720,145 720,120.83333333333334 800,120.83333333333334"></path>
        <path class="link" d="M640,145C720,145 720,145 800,145"></path>
        <path class="link" d="M640,145C720,145 720,169.16666666666669 800,169.16666666666669"></path>
        <path class="link" d="M640,145C720,145 720,193.33333333333334 800,193.33333333333334"></path>
        <path class="link" d="M640,145C720,145 720,217.5 800,217.5"></path>
        <path class="link" d="M640,145C720,145 720,241.66666666666669 800,241.66666666666669"></path>
        <path class="link" d="M480,350.4166666666667C560,350.4166666666667 560,350.4166666666667 640,350.4166666666667"></path>
        <path class="link" d="M640,350.4166666666667C720,350.4166666666667 720,290 800,290"></path>
        <path class="link" d="M640,350.4166666666667C720,350.4166666666667 720,314.1666666666667 800,314.1666666666667"></path>
        <path class="link" d="M640,350.4166666666667C720,350.4166666666667 720,338.33333333333337 800,338.33333333333337"></path>
        <path class="link" d="M640,350.4166666666667C720,350.4166666666667 720,362.5 800,362.5"></path>
        <path class="link" d="M640,350.4166666666667C720,350.4166666666667 720,386.6666666666667 800,386.6666666666667"></path>
        <path class="link" d="M640,350.4166666666667C720,350.4166666666667 720,410.83333333333337 800,410.83333333333337"></path>
        <path class="link" d="M480,1208.3333333333335C560,1208.3333333333335 560,1196.25 640,1196.25"></path>
        <path class="link" d="M480,1208.3333333333335C560,1208.3333333333335 560,1220.4166666666667 640,1220.4166666666667"></path>
        <path class="link" d="M320,1208.3333333333335C400,1208.3333333333335 400,1208.3333333333335 480,1208.3333333333335"></path>
        <path class="link" d="M640,1196.25C720,1196.25 720,1123.75 800,1123.75"></path>
        <path class="link" d="M640,1196.25C720,1196.25 720,1196.25 800,1196.25"></path>
        <path class="link" d="M640,1196.25C720,1196.25 720,1268.75 800,1268.75"></path>
        <path class="link" d="M480,743.125C560,743.125 560,743.125 640,743.125"></path>
        <path class="link" d="M640,743.125C720,743.125 720,459.1666666666667 800,459.1666666666667"></path>
        <path class="link" d="M640,743.125C720,743.125 720,483.33333333333337 800,483.33333333333337"></path>
        <path class="link" d="M640,743.125C720,743.125 720,507.5 800,507.5"></path>
        <path class="link" d="M640,743.125C720,743.125 720,531.6666666666667 800,531.6666666666667"></path>
        <path class="link" d="M640,743.125C720,743.125 720,561.875 800,561.875"></path>
        <path class="link" d="M640,743.125C720,743.125 720,592.0833333333334 800,592.0833333333334"></path>
        <path class="link" d="M640,743.125C720,743.125 720,640.4166666666667 800,640.4166666666667"></path>
        <path class="link" d="M640,743.125C720,743.125 720,688.75 800,688.75"></path>
        <path class="link" d="M640,743.125C720,743.125 720,737.0833333333334 800,737.0833333333334"></path>
        <path class="link" d="M640,743.125C720,743.125 720,821.6666666666667 800,821.6666666666667"></path>
        <path class="link" d="M640,743.125C720,743.125 720,1027.0833333333335 800,1027.0833333333335"></path>
        <path class="link" d="M800,531.6666666666667C880,531.6666666666667 880,531.6666666666667 960,531.6666666666667"></path>
        <path class="link" d="M960,531.6666666666667C1040,531.6666666666667 1040,519.5833333333334 1120,519.5833333333334"></path>
        <path class="link" d="M960,531.6666666666667C1040,531.6666666666667 1040,543.75 1120,543.75"></path>
        <path class="link" d="M800,592.0833333333334C880,592.0833333333334 880,592.0833333333334 960,592.0833333333334"></path>
        <path class="link" d="M1120,592.0833333333334C1200,592.0833333333334 1200,519.5833333333334 1280,519.5833333333334"></path>
        <path class="link" d="M1120,592.0833333333334C1200,592.0833333333334 1200,567.9166666666667 1280,567.9166666666667"></path>
        <path class="link" d="M1120,592.0833333333334C1200,592.0833333333334 1200,616.25 1280,616.25"></path>
        <path class="link" d="M1120,592.0833333333334C1200,592.0833333333334 1200,664.5833333333334 1280,664.5833333333334"></path>
        <path class="link" d="M960,592.0833333333334C1040,592.0833333333334 1040,592.0833333333334 1120,592.0833333333334"></path>
        <path class="link" d="M1280,519.5833333333334C1360,519.5833333333334 1360,519.5833333333334 1440,519.5833333333334"></path>
        <path class="link" d="M1280,567.9166666666667C1360,567.9166666666667 1360,567.9166666666667 1440,567.9166666666667"></path>
        <path class="link" d="M1280,616.25C1360,616.25 1360,616.25 1440,616.25"></path>
        <path class="link" d="M1280,664.5833333333334C1360,664.5833333333334 1360,664.5833333333334 1440,664.5833333333334"></path>
        <path class="link" d="M1440,664.5833333333334C1520,664.5833333333334 1520,664.5833333333334 1600,664.5833333333334"></path>
        <path class="link" d="M800,737.0833333333334C880,737.0833333333334 880,725 960,725"></path>
        <path class="link" d="M800,737.0833333333334C880,737.0833333333334 880,749.1666666666667 960,749.1666666666667"></path>
        <path class="link" d="M800,821.6666666666667C880,821.6666666666667 880,821.6666666666667 960,821.6666666666667"></path>
        <path class="link" d="M960,821.6666666666667C1040,821.6666666666667 1040,725 1120,725"></path>
        <path class="link" d="M960,821.6666666666667C1040,821.6666666666667 1040,749.1666666666667 1120,749.1666666666667"></path>
        <path class="link" d="M960,821.6666666666667C1040,821.6666666666667 1040,773.3333333333334 1120,773.3333333333334"></path>
        <path class="link" d="M960,821.6666666666667C1040,821.6666666666667 1040,797.5 1120,797.5"></path>
        <path class="link" d="M960,821.6666666666667C1040,821.6666666666667 1040,821.6666666666667 1120,821.6666666666667"></path>
        <path class="link" d="M960,821.6666666666667C1040,821.6666666666667 1040,845.8333333333334 1120,845.8333333333334"></path>
        <path class="link" d="M960,821.6666666666667C1040,821.6666666666667 1040,870 1120,870"></path>
        <path class="link" d="M960,821.6666666666667C1040,821.6666666666667 1040,894.1666666666667 1120,894.1666666666667"></path>
        <path class="link" d="M960,821.6666666666667C1040,821.6666666666667 1040,918.3333333333334 1120,918.3333333333334"></path>
        <path class="link" d="M1280,725C1360,725 1360,712.9166666666667 1440,712.9166666666667"></path>
        <path class="link" d="M1280,725C1360,725 1360,737.0833333333334 1440,737.0833333333334"></path>
        <path class="link" d="M1120,725C1200,725 1200,725 1280,725"></path>
        <path class="link" d="M1280,918.3333333333334C1360,918.3333333333334 1360,906.25 1440,906.25"></path>
        <path class="link" d="M1280,918.3333333333334C1360,918.3333333333334 1360,930.4166666666667 1440,930.4166666666667"></path>
        <path class="link" d="M1120,918.3333333333334C1200,918.3333333333334 1200,918.3333333333334 1280,918.3333333333334"></path>
        <path class="link" d="M1440,906.25C1520,906.25 1520,906.25 1600,906.25"></path>
        <path class="link" d="M1120,1015C1200,1015 1200,966.6666666666667 1280,966.6666666666667"></path>
        <path class="link" d="M1120,1015C1200,1015 1200,990.8333333333334 1280,990.8333333333334"></path>
        <path class="link" d="M1120,1015C1200,1015 1200,1015 1280,1015"></path>
        <path class="link" d="M1120,1015C1200,1015 1200,1039.1666666666667 1280,1039.1666666666667"></path>
        <path class="link" d="M1120,1015C1200,1015 1200,1063.3333333333335 1280,1063.3333333333335"></path>
        <path class="link" d="M960,1027.0833333333335C1040,1027.0833333333335 1040,1015 1120,1015"></path>
        <path class="link" d="M960,1027.0833333333335C1040,1027.0833333333335 1040,1039.1666666666667 1120,1039.1666666666667"></path>
        <path class="link" d="M800,1027.0833333333335C880,1027.0833333333335 880,1027.0833333333335 960,1027.0833333333335"></path>
        <path class="link" d="M960,1123.75C1040,1123.75 1040,1111.6666666666667 1120,1111.6666666666667"></path>
        <path class="link" d="M960,1123.75C1040,1123.75 1040,1135.8333333333335 1120,1135.8333333333335"></path>
        <path class="link" d="M800,1123.75C880,1123.75 880,1123.75 960,1123.75"></path>
        <path class="link" d="M1120,1111.6666666666667C1200,1111.6666666666667 1200,1111.6666666666667 1280,1111.6666666666667"></path>
        <path class="link" d="M960,1196.25C1040,1196.25 1040,1184.1666666666667 1120,1184.1666666666667"></path>
        <path class="link" d="M960,1196.25C1040,1196.25 1040,1208.3333333333335 1120,1208.3333333333335"></path>
        <path class="link" d="M800,1196.25C880,1196.25 880,1196.25 960,1196.25"></path>
        <path class="link" d="M1120,1184.1666666666667C1200,1184.1666666666667 1200,1184.1666666666667 1280,1184.1666666666667"></path>
        <path class="link" d="M960,1268.75C1040,1268.75 1040,1256.6666666666667 1120,1256.6666666666667"></path>
        <path class="link" d="M960,1268.75C1040,1268.75 1040,1280.8333333333335 1120,1280.8333333333335"></path>
        <path class="link" d="M800,1268.75C880,1268.75 880,1268.75 960,1268.75"></path>
        <path class="link" d="M1120,1256.6666666666667C1200,1256.6666666666667 1200,1256.6666666666667 1280,1256.6666666666667"></path>
        <g class="node" id="n-5" transform="translate(160,1220.4166259765625)">
            <circle r="6.5"></circle>
            <text x="20" dy="0.35em" class="node-text" text-anchor="start" style="fill-opacity: 1;">version:string*</text>
        </g>
        <g class="node" id="n-6" transform="translate(320,1208.3333740234375)">
            <circle r="6.5" class=""></circle>
            <text x="20" dy="0.35em" class="node-text node-branch" text-anchor="start" style="fill-opacity: 1;">controls</text>
        </g>
        <g class="node" id="n-7" transform="translate(320,1184.1666259765625)">
            <circle r="6.5"></circle>
            <text x="20" dy="0.35em" class="node-text" text-anchor="start" style="fill-opacity: 1;">duration:number,null</text>
        </g>
        <g class="node" id="n-8" transform="translate(160,1196.25)">
            <circle r="6.5"></circle>
            <text x="20" dy="0.35em" class="node-text node-branch" text-anchor="start" style="fill-opacity: 1;">Statistics{ }</text>
        </g>
        <g class="node" id="n-9" transform="translate(320,407.8125)">
            <circle r="6.5" class=""></circle>
            <text x="20" dy="0.35em" class="node-text node-branch abstract" text-anchor="start" style="fill-opacity: 0.5;">Exec JSON Profile{ }</text>
        </g>
        <g class="node" id="n-10" transform="translate(160,407.8125)">
            <circle r="6.5"></circle>
            <text x="20" dy="0.35em" class="node-text node-branch" text-anchor="start" style="fill-opacity: 1;">profiles[ ]:array*</text>
        </g>
        <g class="node" id="n-11" transform="translate(320,359.4791564941406)">
            <circle r="6.5"></circle>
            <text x="20" dy="0.35em" class="node-text" text-anchor="start" style="fill-opacity: 1;">target_id:string,null</text>
        </g>
        <g class="node" id="n-12" transform="translate(320,335.3125)">
            <circle r="6.5"></circle>
            <text x="20" dy="0.35em" class="node-text" text-anchor="start" style="fill-opacity: 1;">release:string*</text>
        </g>
        <g class="node" id="n-13" transform="translate(320,311.1458435058594)">
            <circle r="6.5"></circle>
            <text x="20" dy="0.35em" class="node-text" text-anchor="start" style="fill-opacity: 1;">name:string*</text>
        </g>
        <g class="node" id="n-14" transform="translate(160,335.3125)">
            <circle r="6.5"></circle>
            <text x="20" dy="0.35em" class="node-text node-branch" text-anchor="start" style="fill-opacity: 1;">Platform{ }</text>
        </g>
        <g class="node" id="n-15" transform="translate(0,777.8645629882812)">
            <circle r="6.5"></circle>
            <text x="20" dy="0.35em" class="node-text node-branch abstract" text-anchor="start" style="fill-opacity: 0.5;">Exec JSON Output{ }</text>
        </g>
        <g class="node" id="n-16" transform="translate(480,791.4583129882812)">
            <circle r="6.5" class="collapsed"></circle>
            <text x="20" dy="0.35em" class="node-text node-branch" text-anchor="start" style="fill-opacity: 1;">attributes[ ]:array*</text>
        </g>
        <g class="node" id="n-17" transform="translate(480,767.2916870117188)">
            <circle r="6.5" class="collapsed"></circle>
            <text x="20" dy="0.35em" class="node-text node-branch" text-anchor="start" style="fill-opacity: 1;">groups[ ]:array*</text>
        </g>
        <g class="node" id="n-18" transform="translate(480,743.125)">
            <circle r="6.5" class=""></circle>
            <text x="20" dy="0.35em" class="node-text node-branch" text-anchor="start" style="fill-opacity: 1;">controls[ ]:array*</text>
        </g>
        <g class="node" id="n-19" transform="translate(480,687.0238037109375)">
            <circle r="6.5"></circle>
            <text x="20" dy="0.35em" class="node-text" text-anchor="start" style="fill-opacity: 1;">skip_message:string,null</text>
        </g>
        <g class="node" id="n-20" transform="translate(480,630.922607421875)">
            <circle r="6.5"></circle>
            <text x="20" dy="0.35em" class="node-text" text-anchor="start" style="fill-opacity: 1;">status_message:string,null</text>
        </g>
        <g class="node" id="n-21" transform="translate(480,574.8214111328125)">
            <circle r="6.5"></circle>
            <text x="20" dy="0.35em" class="node-text" text-anchor="start" style="fill-opacity: 1;">status:string,null</text>
        </g>
        <g class="node" id="n-22" transform="translate(480,518.72021484375)">
            <circle r="6.5"></circle>
            <text x="20" dy="0.35em" class="node-text" text-anchor="start" style="fill-opacity: 1;">sha256:string*</text>
        </g>
        <g class="node" id="n-23" transform="translate(480,462.6190490722656)">
            <circle r="6.5"></circle>
            <text x="20" dy="0.35em" class="node-text" text-anchor="start" style="fill-opacity: 1;">inspec_version:string,null</text>
        </g>
        <g class="node" id="n-24" transform="translate(480,406.5178527832031)">
            <circle r="6.5"></circle>
            <text x="20" dy="0.35em" class="node-text" text-anchor="start" style="fill-opacity: 1;">description:string,null</text>
        </g>
        <g class="node" id="n-25" transform="translate(480,350.4166564941406)">
            <circle r="6.5" class=""></circle>
            <text x="20" dy="0.35em" class="node-text node-branch" text-anchor="start" style="fill-opacity: 1;">supports[ ]:array*</text>
        </g>
        <g class="node" id="n-26" transform="translate(480,309.3333435058594)">
            <circle r="6.5"></circle>
            <text x="20" dy="0.35em" class="node-text" text-anchor="start" style="fill-opacity: 1;">version:string,null</text>
        </g>
        <g class="node" id="n-27" transform="translate(480,268.25)">
            <circle r="6.5"></circle>
            <text x="20" dy="0.35em" class="node-text" text-anchor="start" style="fill-opacity: 1;">summary:string,null</text>
        </g>
        <g class="node" id="n-28" transform="translate(480,227.1666717529297)">
            <circle r="6.5"></circle>
            <text x="20" dy="0.35em" class="node-text" text-anchor="start" style="fill-opacity: 1;">license:string,null</text>
        </g>
        <g class="node" id="n-29" transform="translate(480,186.0833282470703)">
            <circle r="6.5"></circle>
            <text x="20" dy="0.35em" class="node-text" text-anchor="start" style="fill-opacity: 1;">parent_profile:string,null</text>
        </g>
        <g class="node" id="n-30" transform="translate(480,145)">
            <circle r="6.5" class=""></circle>
            <text x="20" dy="0.35em" class="node-text node-branch" text-anchor="start" style="fill-opacity: 1;">depends:array,null</text>
        </g>
        <g class="node" id="n-31" transform="translate(480,120.83333587646484)">
            <circle r="6.5"></circle>
            <text x="20" dy="0.35em" class="node-text" text-anchor="start" style="fill-opacity: 1;">copyright_email:string,null</text>
        </g>
        <g class="node" id="n-32" transform="translate(480,96.66666412353516)">
            <circle r="6.5"></circle>
            <text x="20" dy="0.35em" class="node-text" text-anchor="start" style="fill-opacity: 1;">copyright:string,null</text>
        </g>
        <g class="node" id="n-33" transform="translate(480,72.5)">
            <circle r="6.5"></circle>
            <text x="20" dy="0.35em" class="node-text" text-anchor="start" style="fill-opacity: 1;">maintainer:string,null</text>
        </g>
        <g class="node" id="n-34" transform="translate(480,48.33333206176758)">
            <circle r="6.5"></circle>
            <text x="20" dy="0.35em" class="node-text" text-anchor="start" style="fill-opacity: 1;">title:string,null</text>
        </g>
        <g class="node" id="n-35" transform="translate(480,24.16666603088379)">
            <circle r="6.5"></circle>
            <text x="20" dy="0.35em" class="node-text" text-anchor="start" style="fill-opacity: 1;">name:string*</text>
        </g>
        <g class="node" id="n-36" transform="translate(640,145)">
            <circle r="6.5" class=""></circle>
            <text x="20" dy="0.35em" class="node-text node-branch abstract" text-anchor="start" style="fill-opacity: 0.5;">Dependency{ }</text>
        </g>
        <g class="node" id="n-37" transform="translate(800,241.6666717529297)">
            <circle r="6.5"></circle>
            <text x="20" dy="0.35em" class="node-text" text-anchor="start" style="fill-opacity: 1;">compliance:string,null</text>
        </g>
        <g class="node" id="n-38" transform="translate(800,217.5)">
            <circle r="6.5"></circle>
            <text x="20" dy="0.35em" class="node-text" text-anchor="start" style="fill-opacity: 1;">supermarket:string,null</text>
        </g>
        <g class="node" id="n-39" transform="translate(800,193.3333282470703)">
            <circle r="6.5"></circle>
            <text x="20" dy="0.35em" class="node-text" text-anchor="start" style="fill-opacity: 1;">git:string,null</text>
        </g>
        <g class="node" id="n-40" transform="translate(800,169.1666717529297)">
            <circle r="6.5"></circle>
            <text x="20" dy="0.35em" class="node-text" text-anchor="start" style="fill-opacity: 1;">status:string,null</text>
        </g>
        <g class="node" id="n-41" transform="translate(800,145)">
            <circle r="6.5"></circle>
            <text x="20" dy="0.35em" class="node-text" text-anchor="start" style="fill-opacity: 1;">status_message:string,null</text>
        </g>
        <g class="node" id="n-42" transform="translate(800,120.83333587646484)">
            <circle r="6.5"></circle>
            <text x="20" dy="0.35em" class="node-text" text-anchor="start" style="fill-opacity: 1;">path:string,null</text>
        </g>
        <g class="node" id="n-43" transform="translate(800,96.66666412353516)">
            <circle r="6.5"></circle>
            <text x="20" dy="0.35em" class="node-text" text-anchor="start" style="fill-opacity: 1;">branch:string,null</text>
        </g>
        <g class="node" id="n-44" transform="translate(800,72.5)">
            <circle r="6.5"></circle>
            <text x="20" dy="0.35em" class="node-text" text-anchor="start" style="fill-opacity: 1;">url:string,null</text>
        </g>
        <g class="node" id="n-45" transform="translate(800,48.33333206176758)">
            <circle r="6.5"></circle>
            <text x="20" dy="0.35em" class="node-text" text-anchor="start" style="fill-opacity: 1;">name:string,null</text>
        </g>
        <g class="node" id="n-46" transform="translate(640,350.4166564941406)">
            <circle r="6.5" class=""></circle>
            <text x="20" dy="0.35em" class="node-text node-branch abstract" text-anchor="start" style="fill-opacity: 0.5;">Supported Platform{ }</text>
        </g>
        <g class="node" id="n-47" transform="translate(800,410.8333435058594)">
            <circle r="6.5"></circle>
            <text x="20" dy="0.35em" class="node-text" text-anchor="start" style="fill-opacity: 1;">os-name:string,null</text>
        </g>
        <g class="node" id="n-48" transform="translate(800,386.6666564941406)">
            <circle r="6.5"></circle>
            <text x="20" dy="0.35em" class="node-text" text-anchor="start" style="fill-opacity: 1;">os-family:string,null</text>
        </g>
        <g class="node" id="n-49" transform="translate(800,362.5)">
            <circle r="6.5"></circle>
            <text x="20" dy="0.35em" class="node-text" text-anchor="start" style="fill-opacity: 1;">release:string,null</text>
        </g>
        <g class="node" id="n-50" transform="translate(800,338.3333435058594)">
            <circle r="6.5"></circle>
            <text x="20" dy="0.35em" class="node-text" text-anchor="start" style="fill-opacity: 1;">platform:string,null</text>
        </g>
        <g class="node" id="n-51" transform="translate(800,314.1666564941406)">
            <circle r="6.5"></circle>
            <text x="20" dy="0.35em" class="node-text" text-anchor="start" style="fill-opacity: 1;">platform-name:string,null</text>
        </g>
        <g class="node" id="n-52" transform="translate(800,290)">
            <circle r="6.5"></circle>
            <text x="20" dy="0.35em" class="node-text" text-anchor="start" style="fill-opacity: 1;">platform-family:string,null</text>
        </g>
        <g class="node" id="n-53" transform="translate(640,1220.4166259765625)">
            <circle r="6.5"></circle>
            <text x="20" dy="0.35em" class="node-text abstract" text-anchor="start" style="fill-opacity: 0.5;">null:null</text>
        </g>
        <g class="node" id="n-54" transform="translate(640,1196.25)">
            <circle r="6.5" class=""></circle>
            <text x="20" dy="0.35em" class="node-text node-branch abstract" text-anchor="start" style="fill-opacity: 0.5;">Statistic Hash{ }</text>
        </g>
        <g class="node label" id="n-55" transform="translate(480,1208.3333740234375)">
            <circle r="6.5"></circle>
            <text x="20" dy="0.35em" class="node-text node-branch abstract" text-anchor="start" style="fill-opacity: 0.5;">anyOf</text>
        </g>
        <g class="node" id="n-56" transform="translate(800,1268.75)">
            <circle r="6.5" class=""></circle>
            <text x="20" dy="0.35em" class="node-text node-branch" text-anchor="start" style="fill-opacity: 1;">failed</text>
        </g>
        <g class="node" id="n-57" transform="translate(800,1196.25)">
            <circle r="6.5" class=""></circle>
            <text x="20" dy="0.35em" class="node-text node-branch" text-anchor="start" style="fill-opacity: 1;">skipped</text>
        </g>
        <g class="node" id="n-58" transform="translate(800,1123.75)">
            <circle r="6.5" class=""></circle>
            <text x="20" dy="0.35em" class="node-text node-branch" text-anchor="start" style="fill-opacity: 1;">passed</text>
        </g>
        <g class="node" id="n-59" transform="translate(640,743.125)">
            <circle r="6.5" class=""></circle>
            <text x="20" dy="0.35em" class="node-text node-branch abstract" text-anchor="start" style="fill-opacity: 0.5;">Exec JSON Control{ }</text>
        </g>
        <g class="node" id="n-60" transform="translate(800,1027.0833740234375)">
            <circle r="6.5" class=""></circle>
            <text x="20" dy="0.35em" class="node-text node-branch" text-anchor="start" style="fill-opacity: 1;">waiver_data</text>
        </g>
        <g class="node" id="n-61" transform="translate(800,821.6666870117188)">
            <circle r="6.5" class=""></circle>
            <text x="20" dy="0.35em" class="node-text node-branch" text-anchor="start" style="fill-opacity: 1;">results[ ]:array*</text>
        </g>
        <g class="node" id="n-62" transform="translate(800,737.0833129882812)">
            <circle r="6.5" class=""></circle>
            <text x="20" dy="0.35em" class="node-text node-branch" text-anchor="start" style="fill-opacity: 1;">Source Location{ }</text>
        </g>
        <g class="node" id="n-63" transform="translate(800,688.75)">
            <circle r="6.5"></circle>
            <text x="20" dy="0.35em" class="node-text" text-anchor="start" style="fill-opacity: 1;">code:string,null</text>
        </g>
        <g class="node" id="n-64" transform="translate(800,640.4166870117188)">
            <circle r="6.5"></circle>
            <text x="20" dy="0.35em" class="node-text" text-anchor="start" style="fill-opacity: 1;">tags{ }*</text>
        </g>
        <g class="node" id="n-65" transform="translate(800,592.0833129882812)">
            <circle r="6.5" class=""></circle>
            <text x="20" dy="0.35em" class="node-text node-branch" text-anchor="start" style="fill-opacity: 1;">refs[ ]:array*</text>
        </g>
        <g class="node" id="n-66" transform="translate(800,561.875)">
            <circle r="6.5"></circle>
            <text x="20" dy="0.35em" class="node-text" text-anchor="start" style="fill-opacity: 1;">impact:number*</text>
        </g>
        <g class="node" id="n-67" transform="translate(800,531.6666870117188)">
            <circle r="6.5" class=""></circle>
            <text x="20" dy="0.35em" class="node-text node-branch" text-anchor="start" style="fill-opacity: 1;">descriptions:array,null</text>
        </g>
        <g class="node focus" id="n-68" transform="translate(800,507.5)">
            <circle r="6.5"></circle>
            <text x="20" dy="0.35em" class="node-text" text-anchor="start" style="fill-opacity: 1;">desc:null,string</text>
        </g>
        <g class="node" id="n-69" transform="translate(800,483.3333435058594)">
            <circle r="6.5"></circle>
            <text x="20" dy="0.35em" class="node-text" text-anchor="start" style="fill-opacity: 1;">title:null,string</text>
        </g>
        <g class="node" id="n-70" transform="translate(800,459.1666564941406)">
            <circle r="6.5"></circle>
            <text x="20" dy="0.35em" class="node-text" text-anchor="start" style="fill-opacity: 1;">id:string*</text>
        </g>
        <g class="node" id="n-71" transform="translate(960,531.6666870117188)">
            <circle r="6.5" class=""></circle>
            <text x="20" dy="0.35em" class="node-text node-branch abstract" text-anchor="start" style="fill-opacity: 0.5;">Control Description{ }</text>
        </g>
        <g class="node" id="n-72" transform="translate(1120,543.75)">
            <circle r="6.5"></circle>
            <text x="20" dy="0.35em" class="node-text" text-anchor="start" style="fill-opacity: 1;">data:string*</text>
        </g>
        <g class="node" id="n-73" transform="translate(1120,519.5833129882812)">
            <circle r="6.5"></circle>
            <text x="20" dy="0.35em" class="node-text" text-anchor="start" style="fill-opacity: 1;">label:string*</text>
        </g>
        <g class="node" id="n-74" transform="translate(960,592.0833129882812)">
            <circle r="6.5" class=""></circle>
            <text x="20" dy="0.35em" class="node-text node-branch abstract" text-anchor="start" style="fill-opacity: 0.5;">Reference</text>
        </g>
        <g class="node" id="n-75" transform="translate(1280,664.5833129882812)">
            <circle r="6.5" class=""></circle>
            <text x="20" dy="0.35em" class="node-text node-branch abstract" text-anchor="start" style="fill-opacity: 0.5;">Reference{ }</text>
        </g>
        <g class="node" id="n-76" transform="translate(1280,616.25)">
            <circle r="6.5" class=""></circle>
            <text x="20" dy="0.35em" class="node-text node-branch abstract" text-anchor="start" style="fill-opacity: 0.5;">Reference{ }</text>
        </g>
        <g class="node" id="n-77" transform="translate(1280,567.9166870117188)">
            <circle r="6.5" class=""></circle>
            <text x="20" dy="0.35em" class="node-text node-branch abstract" text-anchor="start" style="fill-opacity: 0.5;">Reference{ }</text>
        </g>
        <g class="node" id="n-78" transform="translate(1280,519.5833129882812)">
            <circle r="6.5" class=""></circle>
            <text x="20" dy="0.35em" class="node-text node-branch abstract" text-anchor="start" style="fill-opacity: 0.5;">Reference{ }</text>
        </g>
        <g class="node label" id="n-79" transform="translate(1120,592.0833129882812)">
            <circle r="6.5"></circle>
            <text x="20" dy="0.35em" class="node-text node-branch abstract" text-anchor="start" style="fill-opacity: 0.5;">anyOf</text>
        </g>
        <g class="node" id="n-80" transform="translate(1440,519.5833129882812)">
            <circle r="6.5"></circle>
            <text x="20" dy="0.35em" class="node-text" text-anchor="start" style="fill-opacity: 1;">ref:string*</text>
        </g>
        <g class="node" id="n-81" transform="translate(1440,567.9166870117188)">
            <circle r="6.5"></circle>
            <text x="20" dy="0.35em" class="node-text" text-anchor="start" style="fill-opacity: 1;">url:string*</text>
        </g>
        <g class="node" id="n-82" transform="translate(1440,616.25)">
            <circle r="6.5"></circle>
            <text x="20" dy="0.35em" class="node-text" text-anchor="start" style="fill-opacity: 1;">uri:string*</text>
        </g>
        <g class="node" id="n-83" transform="translate(1440,664.5833129882812)">
            <circle r="6.5" class=""></circle>
            <text x="20" dy="0.35em" class="node-text node-branch" text-anchor="start" style="fill-opacity: 1;">ref[ ]:array*</text>
        </g>
        <g class="node label" id="n-84" transform="translate(1600,664.5833129882812)">
            <circle r="6.5"></circle>
            <text x="20" dy="0.35em" class="node-text abstract" text-anchor="start" style="fill-opacity: 0.5;">object{ }</text>
        </g>
        <g class="node" id="n-85" transform="translate(960,749.1666870117188)">
            <circle r="6.5"></circle>
            <text x="20" dy="0.35em" class="node-text" text-anchor="start" style="fill-opacity: 1;">line:number,null</text>
        </g>
        <g class="node" id="n-86" transform="translate(960,725)">
            <circle r="6.5"></circle>
            <text x="20" dy="0.35em" class="node-text" text-anchor="start" style="fill-opacity: 1;">ref:string,null</text>
        </g>
        <g class="node" id="n-87" transform="translate(960,821.6666870117188)">
            <circle r="6.5" class=""></circle>
            <text x="20" dy="0.35em" class="node-text node-branch abstract" text-anchor="start" style="fill-opacity: 0.5;">Control Result{ }</text>
        </g>
        <g class="node" id="n-88" transform="translate(1120,918.3333129882812)">
            <circle r="6.5" class=""></circle>
            <text x="20" dy="0.35em" class="node-text node-branch" text-anchor="start" style="fill-opacity: 1;">backtrace</text>
        </g>
        <g class="node" id="n-89" transform="translate(1120,894.1666870117188)">
            <circle r="6.5"></circle>
            <text x="20" dy="0.35em" class="node-text" text-anchor="start" style="fill-opacity: 1;">exception:string,null</text>
        </g>
        <g class="node" id="n-90" transform="translate(1120,870)">
            <circle r="6.5"></circle>
            <text x="20" dy="0.35em" class="node-text" text-anchor="start" style="fill-opacity: 1;">skip_message:string,null</text>
        </g>
        <g class="node" id="n-91" transform="translate(1120,845.8333129882812)">
            <circle r="6.5"></circle>
            <text x="20" dy="0.35em" class="node-text" text-anchor="start" style="fill-opacity: 1;">message:string,null</text>
        </g>
        <g class="node" id="n-92" transform="translate(1120,821.6666870117188)">
            <circle r="6.5"></circle>
            <text x="20" dy="0.35em" class="node-text" text-anchor="start" style="fill-opacity: 1;">resource:string,null</text>
        </g>
        <g class="node" id="n-93" transform="translate(1120,797.5)">
            <circle r="6.5"></circle>
            <text x="20" dy="0.35em" class="node-text" text-anchor="start" style="fill-opacity: 1;">start_time:string*</text>
        </g>
        <g class="node" id="n-94" transform="translate(1120,773.3333129882812)">
            <circle r="6.5"></circle>
            <text x="20" dy="0.35em" class="node-text" text-anchor="start" style="fill-opacity: 1;">run_time:number,null</text>
        </g>
        <g class="node" id="n-95" transform="translate(1120,749.1666870117188)">
            <circle r="6.5"></circle>
            <text x="20" dy="0.35em" class="node-text" text-anchor="start" style="fill-opacity: 1;">code_desc:string*</text>
        </g>
        <g class="node" id="n-96" transform="translate(1120,725)">
            <circle r="6.5" class=""></circle>
            <text x="20" dy="0.35em" class="node-text node-branch" text-anchor="start" style="fill-opacity: 1;">status</text>
        </g>
        <g class="node" id="n-97" transform="translate(1440,737.0833129882812)">
            <circle r="6.5"></circle>
            <text x="20" dy="0.35em" class="node-text abstract" text-anchor="start" style="fill-opacity: 0.5;">null:null</text>
        </g>
        <g class="node" id="n-98" transform="translate(1440,712.9166870117188)">
            <circle r="6.5"></circle>
            <text x="20" dy="0.35em" class="node-text abstract" text-anchor="start" style="fill-opacity: 0.5;">Control Result Status:string</text>
        </g>
        <g class="node label" id="n-99" transform="translate(1280,725)">
            <circle r="6.5"></circle>
            <text x="20" dy="0.35em" class="node-text node-branch abstract" text-anchor="start" style="fill-opacity: 0.5;">anyOf</text>
        </g>
        <g class="node" id="n-100" transform="translate(1440,930.4166870117188)">
            <circle r="6.5"></circle>
            <text x="20" dy="0.35em" class="node-text abstract" text-anchor="start" style="fill-opacity: 0.5;">null:null</text>
        </g>
        <g class="node" id="n-101" transform="translate(1440,906.25)">
            <circle r="6.5" class=""></circle>
            <text x="20" dy="0.35em" class="node-text node-branch abstract" text-anchor="start" style="fill-opacity: 0.5;">array[ ]:array</text>
        </g>
        <g class="node label" id="n-102" transform="translate(1280,918.3333129882812)">
            <circle r="6.5"></circle>
            <text x="20" dy="0.35em" class="node-text node-branch abstract" text-anchor="start" style="fill-opacity: 0.5;">anyOf</text>
        </g>
        <g class="node" id="n-103" transform="translate(1600,906.25)">
            <circle r="6.5"></circle>
            <text x="20" dy="0.35em" class="node-text abstract" text-anchor="start" style="fill-opacity: 0.5;">string:string</text>
        </g>
        <g class="node" id="n-104" transform="translate(1120,1039.1666259765625)">
            <circle r="6.5"></circle>
            <text x="20" dy="0.35em" class="node-text abstract" text-anchor="start" style="fill-opacity: 0.5;">null:null</text>
        </g>
        <g class="node" id="n-105" transform="translate(1280,1063.3333740234375)">
            <circle r="6.5"></circle>
            <text x="20" dy="0.35em" class="node-text" text-anchor="start" style="fill-opacity: 1;">skipped_due_to_waiver:boolean,null,string</text>
        </g>
        <g class="node" id="n-106" transform="translate(1280,1039.1666259765625)">
            <circle r="6.5"></circle>
            <text x="20" dy="0.35em" class="node-text" text-anchor="start" style="fill-opacity: 1;">run:boolean,null</text>
        </g>
        <g class="node" id="n-107" transform="translate(1280,1015)">
            <circle r="6.5"></circle>
            <text x="20" dy="0.35em" class="node-text" text-anchor="start" style="fill-opacity: 1;">message:string,null</text>
        </g>
        <g class="node" id="n-108" transform="translate(1280,990.8333129882812)">
            <circle r="6.5"></circle>
            <text x="20" dy="0.35em" class="node-text" text-anchor="start" style="fill-opacity: 1;">justification:string,null</text>
        </g>
        <g class="node" id="n-109" transform="translate(1280,966.6666870117188)">
            <circle r="6.5"></circle>
            <text x="20" dy="0.35em" class="node-text" text-anchor="start" style="fill-opacity: 1;">expiration_date:string,null</text>
        </g>
        <g class="node label" id="n-110" transform="translate(1120,1015)">
            <circle r="6.5"></circle>
            <text x="20" dy="0.35em" class="node-text node-branch abstract" text-anchor="start" style="fill-opacity: 0.5;">object{ }</text>
        </g>
        <g class="node label" id="n-111" transform="translate(960,1027.0833740234375)">
            <circle r="6.5"></circle>
            <text x="20" dy="0.35em" class="node-text node-branch abstract" text-anchor="start" style="fill-opacity: 0.5;">anyOf</text>
        </g>
        <g class="node" id="n-112" transform="translate(1120,1135.8333740234375)">
            <circle r="6.5"></circle>
            <text x="20" dy="0.35em" class="node-text abstract" text-anchor="start" style="fill-opacity: 0.5;">null:null</text>
        </g>
        <g class="node" id="n-113" transform="translate(1120,1111.6666259765625)">
            <circle r="6.5" class=""></circle>
            <text x="20" dy="0.35em" class="node-text node-branch abstract" text-anchor="start" style="fill-opacity: 0.5;">Statistic Block{ }</text>
        </g>
        <g class="node label" id="n-114" transform="translate(960,1123.75)">
            <circle r="6.5"></circle>
            <text x="20" dy="0.35em" class="node-text node-branch abstract" text-anchor="start" style="fill-opacity: 0.5;">anyOf</text>
        </g>
        <g class="node" id="n-115" transform="translate(1280,1111.6666259765625)">
            <circle r="6.5"></circle>
            <text x="20" dy="0.35em" class="node-text" text-anchor="start" style="fill-opacity: 1;">total:number*</text>
        </g>
        <g class="node" id="n-116" transform="translate(1120,1208.3333740234375)">
            <circle r="6.5"></circle>
            <text x="20" dy="0.35em" class="node-text abstract" text-anchor="start" style="fill-opacity: 0.5;">null:null</text>
        </g>
        <g class="node" id="n-117" transform="translate(1120,1184.1666259765625)">
            <circle r="6.5" class=""></circle>
            <text x="20" dy="0.35em" class="node-text node-branch abstract" text-anchor="start" style="fill-opacity: 0.5;">Statistic Block{ }</text>
        </g>
        <g class="node label" id="n-118" transform="translate(960,1196.25)">
            <circle r="6.5"></circle>
            <text x="20" dy="0.35em" class="node-text node-branch abstract" text-anchor="start" style="fill-opacity: 0.5;">anyOf</text>
        </g>
        <g class="node" id="n-119" transform="translate(1280,1184.1666259765625)">
            <circle r="6.5"></circle>
            <text x="20" dy="0.35em" class="node-text" text-anchor="start" style="fill-opacity: 1;">total:number*</text>
        </g>
        <g class="node" id="n-120" transform="translate(1120,1280.8333740234375)">
            <circle r="6.5"></circle>
            <text x="20" dy="0.35em" class="node-text abstract" text-anchor="start" style="fill-opacity: 0.5;">null:null</text>
        </g>
        <g class="node" id="n-121" transform="translate(1120,1256.6666259765625)">
            <circle r="6.5" class=""></circle>
            <text x="20" dy="0.35em" class="node-text node-branch abstract" text-anchor="start" style="fill-opacity: 0.5;">Statistic Block{ }</text>
        </g>
        <g class="node label" id="n-122" transform="translate(960,1268.75)">
            <circle r="6.5"></circle>
            <text x="20" dy="0.35em" class="node-text node-branch abstract" text-anchor="start" style="fill-opacity: 0.5;">anyOf</text>
        </g>
        <g class="node" id="n-123" transform="translate(1280,1256.6666259765625)">
            <circle r="6.5"></circle>
            <text x="20" dy="0.35em" class="node-text" text-anchor="start" style="fill-opacity: 1;">total:number*</text>
        </g>
    </g>
</svg>