<?xml version="1.0" encoding="UTF-8"?>
<svg width="144px" height="27px" viewBox="0 0 144 27" version="1.1" xmlns="http://www.w3.org/2000/svg" xmlns:xlink="http://www.w3.org/1999/xlink">
    <!-- Generator: Sketch 55.2 (78181) - https://sketchapp.com -->
    <title>Artboard</title>
    <desc>Created with Sketch.</desc>
    <g id="Artboard" stroke="none" stroke-width="1" fill="none" fill-rule="evenodd">
        <g id="1588888058-terraformprimarylogomonotonalrgb" fill="#FFFFFF" fill-rule="nonzero">
            <polygon id="Path" points="7.4072323 6.22046192 0 6.22046192 0 2.07692308 19.7307692 2.07692308 19.7307692 6.22046192 12.3890877 6.22046192 12.3890877 27 7.4072323 27 7.4072323 6.22046192"></polygon>
            <path d="M23.6402715,23.2858933 C25.5339367,23.2858933 27.3665158,22.9814583 29.138009,22.4334753 L29.8099548,25.8431471 C27.6719457,26.634678 25.4728507,27 23.2126697,27 C17.5927602,27 15.5769231,24.3818592 15.5769231,20.0588825 L15.5769231,15.3096968 C15.5769231,11.5347031 17.2873303,8.30769231 23.0294118,8.30769231 C28.7714932,8.30769231 30.1153846,11.6564771 30.1153846,15.5532448 L30.1153846,19.3891255 L20.0972851,19.3891255 L20.0972851,20.3024305 C20.158371,22.4334753 20.9524887,23.2858933 23.6402715,23.2858933 Z M20.158371,15.7359058 L25.9004525,15.7359058 L25.9004525,14.8834878 C25.9004525,13.178652 25.4117647,12.021799 23.1515837,12.021799 C20.8914027,12.021799 20.158371,13.178652 20.158371,14.8834878 L20.158371,15.7359058 Z" id="Shape"></path>
            <path d="M43.6153846,12.5305392 C41.9552126,13.2757475 40.3565283,14.2072579 38.819332,15.2008689 L38.819332,27 L34.2692308,27 L34.2692308,8.68029645 L38.0814777,8.68029645 L38.388917,10.7296192 C39.8646255,9.73600818 41.4633097,8.92869921 43.1849696,8.30769231 L43.6153846,12.5305392 Z" id="Path"></path>
            <path d="M55.0384615,12.5305392 C53.3782895,13.2757475 51.7796053,14.2072579 50.2424089,15.2008689 L50.2424089,27 L45.6923077,27 L45.6923077,8.68029645 L49.5045547,8.68029645 L49.8119939,10.7296192 C51.2877024,9.73600818 52.8863866,8.92869921 54.5465587,8.30769231 L55.0384615,12.5305392 Z" id="Path"></path>
            <path d="M69.5769231,26.634678 L66.011988,26.634678 L65.7197802,25.4169381 C64.2002997,26.452017 62.3886114,27 60.5769231,27 C57.4210789,27 56.0769231,24.7471812 56.0769231,21.6419444 C56.0769231,17.9887246 57.5964036,16.5883237 61.1028971,16.5883237 L65.2522478,16.5883237 L65.2522478,14.7008269 C65.2522478,12.691556 64.7262737,12.021799 61.9795205,12.021799 C60.4015984,12.021799 58.7652348,12.20446 57.1873127,12.569782 L56.6613387,9.16011025 C58.5899101,8.61212729 60.5769231,8.30769231 62.5639361,8.30769231 C67.999001,8.30769231 69.5769231,10.3169632 69.5769231,14.8226009 L69.5769231,26.634678 Z M65.2522478,19.8762215 L62.0964036,19.8762215 C60.6938062,19.8762215 60.2847153,20.3024305 60.2847153,21.6419444 C60.2847153,22.9205713 60.6938062,23.4685542 62.037962,23.4685542 C63.2067932,23.4685542 64.3171828,23.1032323 65.3106893,22.5552493 L65.2522478,19.8762215 Z" id="Shape"></path>
            <path d="M85.6628959,4.11007026 C84.7364253,3.92037471 83.8099548,3.79391101 82.8834842,3.79391101 C80.9643665,3.79391101 80.6996606,4.61592506 80.6996606,6.00702576 L80.6996606,8.34660422 L85.6628959,8.34660422 L85.39819,12.0772834 L80.6996606,12.0772834 L80.6996606,27 L75.8026018,27 L75.8026018,12.0772834 L72.6923077,12.0772834 L72.6923077,8.34660422 L75.8026018,8.34660422 L75.8026018,5.75409836 C75.8026018,1.8969555 77.655543,0 81.9570136,0 C83.3467195,0 84.8026018,0.18969555 86.1923077,0.505854801 L85.6628959,4.11007026 Z" id="Path"></path>
            <path d="M93.9807692,27 C87.8351863,27 86.1923077,23.5791855 86.1923077,19.9140271 L86.1923077,15.3936652 C86.1923077,11.7285068 87.8351863,8.30769231 93.9807692,8.30769231 C100.126352,8.30769231 101.769231,11.7285068 101.769231,15.3936652 L101.769231,19.9140271 C101.769231,23.5791855 100.126352,27 93.9807692,27 Z M93.9807692,12.0950226 C91.6077224,12.0950226 90.695012,13.1945701 90.695012,15.2104072 L90.695012,20.0361991 C90.695012,22.0520362 91.6077224,23.1515837 93.9807692,23.1515837 C96.3538161,23.1515837 97.2665264,22.0520362 97.2665264,20.0361991 L97.2665264,15.2104072 C97.2665264,13.1945701 96.3538161,12.0950226 93.9807692,12.0950226 Z" id="Shape"></path>
            <path d="M113.192308,12.5305392 C111.532136,13.2757475 109.933451,14.2072579 108.396255,15.2008689 L108.396255,27 L103.846154,27 L103.846154,8.68029645 L107.658401,8.68029645 L107.96584,10.7296192 C109.441549,9.73600818 111.040233,8.92869921 112.700405,8.30769231 L113.192308,12.5305392 Z" id="Path"></path>
            <path d="M127.414075,27 L127.414075,14.2072579 C127.414075,13.2136468 126.967267,12.7168413 125.88216,12.7168413 C124.797054,12.7168413 122.690671,13.3999489 120.967267,14.2693585 L120.967267,26.9378993 L116.307692,26.9378993 L116.307692,8.68029645 L119.88216,8.68029645 L120.328969,10.2328137 C122.690671,9.11500128 125.243863,8.43189369 127.860884,8.30769231 C129.648118,8.30769231 130.797054,9.05290059 131.435352,10.2949144 C133.797054,9.11500128 136.350245,8.43189369 139.031097,8.30769231 C142.158756,8.30769231 143.307692,10.4191158 143.307692,13.7104523 L143.307692,27 L138.584288,27 L138.584288,14.2072579 C138.584288,13.2136468 138.13748,12.7168413 137.052373,12.7168413 C135.328969,12.9031434 133.669394,13.3999489 132.13748,14.2693585 L132.13748,26.9378993 L127.414075,26.9378993 L127.414075,27 Z" id="Path"></path>
        </g>
    </g>
</svg>