<?xml version="1.0" encoding="UTF-8"?>
<svg width="93px" height="92px" viewBox="0 0 93 92" version="1.1" xmlns="http://www.w3.org/2000/svg" xmlns:xlink="http://www.w3.org/1999/xlink">
    <!-- Generator: Sketch 55.2 (78181) - https://sketchapp.com -->
    <title>Visualize Icon</title>
    <desc>Created with Sketch.</desc>
    <g id="Page-1" stroke="none" stroke-width="1" fill="none" fill-rule="evenodd">
        <g id="DarkMode" transform="translate(-1397.000000, -202.000000)" fill-rule="nonzero">
            <g id="Visualize" transform="translate(1390.000000, 202.000000)">
                <g id="Visualize-Icon" transform="translate(7.000000, 0.000000)">
                    <g id="noun_Graph_2102865">
                        <path d="M16,88.2561696 L16,65.7438304 C16,63.6763146 14.4328613,62 12.5,62 C10.5671387,62 9,63.6763146 9,65.7438304 L9,88.2561696 C9,90.3236854 10.5671387,92 12.5,92 C14.4328613,92 16,90.3236854 16,88.2561696 Z" id="Path" fill="#B3B3B3"></path>
                        <path d="M38,88.1624633 L38,58.8375367 C38,56.718272 36.4328613,55 34.5,55 C32.5671387,55 31,56.718272 31,58.8375367 L31,88.1624633 C31,90.281728 32.5671387,92 34.5,92 C36.4328613,92 38,90.281728 38,88.1624633 Z" id="Path" fill="#B3B3B3"></path>
                        <path d="M61,88.2196214 L61,48.7803786 C61,46.6926793 59.4328614,45 57.5,45 C55.5671386,45 54,46.6926793 54,48.7803786 L54,88.2196214 C54,90.3073207 55.5671386,92 57.5,92 C59.4328614,92 61,90.3073207 61,88.2196214 Z" id="Path" fill="#B3B3B3"></path>
                        <path d="M83,88.1293705 L83,33.8706295 C83,31.7330894 81.4328614,30 79.5,30 C77.5671386,30 76,31.7330894 76,33.8706295 L76,88.1293705 C76,90.2669106 77.5671386,92 79.5,92 C81.4328614,92 83,90.2669106 83,88.1293705 Z" id="Path" fill="#B3B3B3"></path>
                        <path d="M89.1250357,0 L74.198477,0 C72.0585432,0 70.3235129,1.704749 70.3235129,3.80733479 C70.3235129,5.90992058 72.0585432,7.61466959 74.198477,7.61466959 L81.1298474,7.61466959 C50.1755443,32.8752113 3.22648944,47.4018295 2.7273371,47.554504 C0.683898984,48.1772857 -0.458912798,50.3114755 0.174931552,52.3192497 C0.690521298,53.9514958 2.22215376,55 3.87487905,55 C4.25518566,55 4.64116832,54.9442284 5.02431295,54.8271084 C7.10429178,54.1930561 53.2144491,39.937743 85.2500717,14.157713 L85.2500717,18.4733818 C85.2500717,20.5759676 86.985102,22.2807166 89.1250359,22.2807166 C91.2649697,22.2807166 93,20.5759676 93,18.4733818 L93,3.80733479 C93,1.704749 91.2649695,0 89.1250357,0 Z" id="Path" fill="#FFFFFF"></path>
                    </g>
                </g>
            </g>
        </g>
    </g>
</svg>