<?xml version="1.0" encoding="UTF-8"?>
<svg width="100px" height="21px" viewBox="0 0 100 21" version="1.1" xmlns="http://www.w3.org/2000/svg" xmlns:xlink="http://www.w3.org/1999/xlink">
    <!-- Generator: Sketch 55.2 (78181) - https://sketchapp.com -->
    <title>Artboard</title>
    <desc>Created with Sketch.</desc>
    <g id="Artboard" stroke="none" stroke-width="1" fill="none" fill-rule="evenodd">
        <g id="Group-5" fill="#888C8E">
            <path d="M99.5143712,16.983 C98.6683669,17.9550049 97.6243774,18.7244972 96.3823712,19.2915 C95.1403649,19.8585028 93.7093793,20.142 92.0893712,20.142 C90.6133638,20.142 89.2498774,19.8990024 87.9988712,19.413 C86.7478649,18.9269976 85.6633757,18.2385045 84.7453712,17.3475 C83.8273666,16.4564955 83.1073738,15.3900062 82.5853712,14.148 C82.0633685,12.9059938 81.8023712,11.5380075 81.8023712,10.044 C81.8023712,8.51399235 82.0678685,7.12800621 82.5988712,5.886 C83.1298738,4.64399379 83.8633665,3.58650436 84.7993712,2.7135 C85.7353758,1.84049564 86.8333649,1.17000234 88.0933712,0.702 C89.3533775,0.23399766 90.7123639,0 92.1703712,0 C93.5203779,0 94.8478646,0.238497615 96.1528712,0.7155 C97.4578777,1.19250239 98.5153671,1.88999541 99.3253712,2.808 L96.1933712,5.94 C95.761369,5.34599703 95.1943747,4.90500144 94.4923712,4.617 C93.7903676,4.32899856 93.0703748,4.185 92.3323712,4.185 C91.5223671,4.185 90.7798745,4.33349851 90.1048712,4.6305 C89.4298678,4.92750148 88.8493736,5.33699739 88.3633712,5.859 C87.8773687,6.38100261 87.4993725,6.99749645 87.2293712,7.7085 C86.9593698,8.41950356 86.8243712,9.19799577 86.8243712,10.044 C86.8243712,10.9080043 86.9593698,11.6999964 87.2293712,12.42 C87.4993725,13.1400036 87.8728688,13.7564974 88.3498712,14.2695 C88.8268735,14.7825026 89.3983678,15.1829986 90.0643712,15.471 C90.7303745,15.7590014 91.4593672,15.903 92.2513712,15.903 C93.1693757,15.903 93.9703677,15.7230018 94.6543712,15.363 C95.3383746,15.0029982 95.8873691,14.5350029 96.3013712,13.959 L99.5143712,16.983 Z" id="C" fill-rule="nonzero"></path>
            <rect id="Rectangle" x="64.737931" y="0.379" width="13" height="3.75" rx="0.25"></rect>
            <rect id="Rectangle" x="64.737931" y="15.629" width="13" height="3.75" rx="0.25"></rect>
            <rect id="Rectangle" x="64.737931" y="7.629" width="11" height="4.5" rx="0.25"></rect>
            <polygon id="Path-4" points="-2.27373675e-13 19.9956667 3.74379041 19.9956667 3.74379041 0.162333333 -2.27373675e-13 0.162333333"></polygon>
            <polygon id="Path-5" points="9.3560951 19.9956667 12.9908607 19.9956667 12.9908607 8.629 24.1578529 19.9956667 25.237931 19.9956667 25.237931 0.629 21.5494545 0.629 21.5494545 11.3123333 10.7183998 0.629 9.3560951 0.629"></polygon>
            <path d="M41.0448712,5.886 C40.7028694,5.45399784 39.7887605,4.6367009 39.0198712,4.2255 C38.2509818,3.8142991 37.8813738,3.915 37.3593712,3.915 C37.0533696,3.915 36.7383728,3.95099964 36.4143712,4.023 C36.0903695,4.09500036 35.7843726,4.20749924 35.4963712,4.3605 C35.2083697,4.51350077 34.9743721,4.71599874 34.7943712,4.968 C34.6143703,5.22000126 34.5243712,5.5259982 34.5243712,5.886 C34.5243712,6.46200288 34.740369,6.90299847 35.1723712,7.209 C35.6043733,7.51500153 36.1488679,7.77599892 36.8058712,7.992 C37.4628744,8.20800108 38.1693674,8.42399892 38.9253712,8.64 C39.6813749,8.85600108 40.3878679,9.16199802 41.0448712,9.558 C41.7018744,9.95400198 42.246369,10.4849967 42.6783712,11.151 C43.1103733,11.8170033 43.3263712,12.7079944 43.3263712,13.824 C43.3263712,14.8860053 43.1283731,15.812996 42.7323712,16.605 C42.3363692,17.397004 41.8008745,18.0539974 41.1258712,18.576 C40.4508678,19.0980026 39.6678756,19.4849987 38.7768712,19.737 C37.8858667,19.9890013 36.9453761,20.115 35.9553712,20.115 C34.7133649,20.115 33.5357136,19.967 32.4993712,19.548 C31.4630287,19.129 30.7578712,18.576 29.1602943,16.605 C29.1602943,16.605 30.2328199,15.678 32.3778712,13.824 C32.8098733,14.4000029 33.5028679,15.4394984 34.1598712,15.7545 C34.8168744,16.0695016 35.4963676,16.227 36.1983712,16.227 C36.5403729,16.227 36.8868694,16.1865004 37.2378712,16.1055 C37.5888729,16.0244996 37.9038698,15.9030008 38.1828712,15.741 C38.4618725,15.5789992 38.6868703,15.3720013 38.8578712,15.12 C39.028872,14.8679987 39.1143712,14.5710017 39.1143712,14.229 C39.1143712,13.6529971 38.8938734,13.1985017 38.4528712,12.8655 C38.0118689,12.5324983 37.4583745,12.2490012 36.7923712,12.015 C36.1263678,11.7809988 35.406375,11.5470012 34.6323712,11.313 C33.8583673,11.0789988 33.1383745,10.764002 32.4723712,10.368 C31.8063678,9.97199802 31.2528734,9.45000324 30.8118712,8.802 C30.3708689,8.15399676 30.1503712,7.29900531 30.1503712,6.237 C30.1503712,5.21099487 30.3528691,4.31100387 30.7578712,3.537 C31.1628732,2.76299613 31.7028678,2.11500261 32.3778712,1.593 C33.0528745,1.07099739 33.8313667,0.679501305 34.7133712,0.4185 C35.5953756,0.157498695 36.5043665,0.027 37.4403712,0.027 C38.5203766,0.027 39.5643661,0.17999847 40.5723712,0.486 C41.5803762,0.79200153 42.4893671,1.3049964 43.2993712,2.025 L41.0448712,5.886 Z" id="S" fill-rule="nonzero"></path>
            <path d="M60.9506511,5.993 C60.9506511,7.01567178 60.7946527,7.89966294 60.4826511,8.645 C60.1706496,9.39033706 59.7546537,10.0056642 59.2346511,10.491 C58.7146485,10.9763358 58.1253211,11.3359988 57.4666511,11.57 C56.8079812,11.8040012 56.1406545,11.921 55.4646511,11.921 L52.6706511,11.921 L52.6706511,19.629 L48.5886511,19.629 L48.5886511,0.221 L55.3086511,0.221 C55.9673211,0.221 56.6303145,0.31633238 57.2976511,0.507 C57.9649878,0.69766762 58.5716484,1.01399779 59.1176511,1.456 C59.6636539,1.89800221 60.1056495,2.49166294 60.4436511,3.237 C60.7816528,3.98233706 60.9506511,4.90099454 60.9506511,5.993 Z M56.4526511,6.23037084 C56.4526511,5.39836668 55.568654,4.731 54.9966511,4.731 L52.6706511,4.731 L52.6706511,7.541 L54.9966511,7.541 C55.568654,7.541 56.4526511,7.02770816 56.4526511,6.23037084 Z" id="P" fill-rule="nonzero"></path>
        </g>
    </g>
</svg>